<svg xmlns="http://www.w3.org/2000/svg" width="32" height="32"><path fill="#fff" d="M32 16c0 8.837-7.163 16-16 16S0 24.837 0 16 7.163 0 16 0s16 7.163 16 16z"/><path fill="#7eb101" d="M15.667 6.222c1.348 0 2.5.47 3.456 1.411s1.433 2.085 1.433 3.433c0 .77-.167 1.496-.5 2.178s-.804 1.259-1.411 1.733h-.756v-1.111c.43-.341.759-.756.989-1.244s.344-1.007.344-1.556c0-.978-.348-1.807-1.044-2.489s-1.533-1.022-2.511-1.022c-.978 0-1.815.341-2.511 1.022s-1.044 1.511-1.044 2.489c0 .548.115 1.067.344 1.556s.559.904.989 1.244v1.6c-.83-.43-1.481-1.037-1.956-1.822s-.711-1.644-.711-2.578c0-1.348.478-2.493 1.433-3.433s2.107-1.411 3.456-1.411zm-.845 18.667c-.252 0-.489-.048-.711-.144s-.415-.226-.578-.389l-4.578-4.578 1.244-1.289c.207-.207.441-.367.7-.478s.53-.13.811-.056l1.733.4v-7.244c0-.622.215-1.148.644-1.578s.956-.644 1.578-.644c.622 0 1.148.215 1.578.644s.644.956.644 1.578v3.822h.578c.074 0 .141.015.2.044s.126.059.2.089l3.289 1.6c.356.163.619.426.789.789s.219.737.144 1.122l-.8 4.844c-.074.43-.281.781-.622 1.056s-.726.411-1.156.411H14.82zm-.177-1.333h6.244l.956-5.533-4.067-2.022h-1.222v-4.889c0-.267-.081-.481-.244-.644s-.378-.244-.644-.244-.482.081-.644.244c-.163.163-.244.378-.244.644v8.867l-3.422-.733-.511.511 3.8 3.8zm6.244 0z"/></svg>