<svg aria-hidden="true" style="width:0;height:0;position:absolute;overflow:hidden" xmlns="http://www.w3.org/2000/svg"><defs><symbol id="icon-right_bg" viewBox="0 0 37 32"><path d="M34.667 5.333v16a5.333 5.333 0 0 1-5.333 5.333H8.001a5.333 5.333 0 0 1-5.333-5.333v-16A5.333 5.333 0 0 1 8.001 0h21.333a5.333 5.333 0 0 1 5.333 5.333z"/><path d="m25.7 12.73-9.288-8.85a.832.832 0 0 0-1.15 0l-.01.01a.78.78 0 0 0-.238.555.763.763 0 0 0 .238.555l8.747 8.333-8.747 8.33a.78.78 0 0 0-.238.555.763.763 0 0 0 .238.555l.01.01a.832.832 0 0 0 1.15 0l9.288-8.85a.82.82 0 0 0 .258-.603.837.837 0 0 0-.258-.603z"/></symbol><symbol id="icon-left_bg" viewBox="0 0 37 32"><path d="M2.667 21.333v-16A5.333 5.333 0 0 1 8 0h21.333a5.333 5.333 0 0 1 5.333 5.333v16a5.333 5.333 0 0 1-5.333 5.333H8a5.333 5.333 0 0 1-5.333-5.333z"/><path d="m11.634 13.937 9.288 8.85a.832.832 0 0 0 1.15 0l.01-.01a.78.78 0 0 0 .238-.555.763.763 0 0 0-.238-.555l-8.747-8.333 8.747-8.33a.78.78 0 0 0 .238-.555.763.763 0 0 0-.238-.555l-.01-.01a.832.832 0 0 0-1.15 0l-9.288 8.85a.82.82 0 0 0-.258.603.837.837 0 0 0 .258.603z"/></symbol><symbol id="icon-right_tb" viewBox="0 0 37 32"><path d="M3.556 21.333V3.555A3.556 3.556 0 0 1 7.112-.001h23.111a3.556 3.556 0 0 1 3.556 3.556v17.778a3.556 3.556 0 0 1-3.556 3.556H7.112a3.556 3.556 0 0 1-3.556-3.556z"/></symbol><symbol id="icon-left_tb" viewBox="0 0 37 32"><path d="M33.778 3.556v17.778a3.556 3.556 0 0 1-3.556 3.556H7.111a3.556 3.556 0 0 1-3.556-3.556V3.556A3.556 3.556 0 0 1 7.111 0h23.111a3.556 3.556 0 0 1 3.556 3.556z"/><path stroke-width=".889" d="M25.102 12.203a.327.327 0 0 1 .076.372.35.35 0 0 1-.076.11l-8.669 8.26a.333.333 0 0 1-.457.003l-.005-.005-.008-.008a.28.28 0 0 1-.084-.197c0-.037.007-.073.022-.107a.295.295 0 0 1 .062-.09l8.501-8.096-8.502-8.1a.28.28 0 0 1-.084-.197c0-.037.007-.073.022-.107a.295.295 0 0 1 .062-.09l.008-.008.005-.005a.336.336 0 0 1 .457.003l8.669 8.26z"/></symbol><symbol id="icon-dt-vol-l" viewBox="0 0 18 32"><path d="m.48 16.965 14.861 14.16a1.334 1.334 0 0 0 1.84 0l.016-.016a1.237 1.237 0 0 0 .382-.889 1.22 1.22 0 0 0-.382-.889L3.202 15.998 17.197 2.67a1.222 1.222 0 0 0 .282-1.373 1.231 1.231 0 0 0-.282-.405l-.016-.016a1.336 1.336 0 0 0-1.84 0L.48 15.036a1.331 1.331 0 0 0 0 1.93z"/></symbol><symbol id="icon-dt-vol-r" viewBox="0 0 18 32"><path d="M17.653 15.035 2.792.875a1.334 1.334 0 0 0-1.84 0L.936.891a1.222 1.222 0 0 0-.282 1.373c.065.153.162.291.282.405l13.995 13.333L.936 29.33a1.212 1.212 0 0 0-.381.889 1.236 1.236 0 0 0 .381.889l.016.016a1.334 1.334 0 0 0 1.84 0l14.861-14.16a1.331 1.331 0 0 0 0-1.93z"/></symbol><symbol id="icon-tb-vol-l" viewBox="0 0 17 32"><path style="fill:var(--color1,#fff)" stroke-width="1.454" stroke="#2C2C2C" d="M16.349 15.605a.548.548 0 0 1 .125.61.55.55 0 0 1-.125.18L2.163 29.911a.543.543 0 0 1-.747.005l-.008-.008-.014-.013a.442.442 0 0 1 0-.644l.001-.001 13.911-13.249L1.394 2.746a.442.442 0 0 1 0-.644l.021-.021a.545.545 0 0 1 .747.005l14.186 13.516z"/></symbol><symbol id="icon-tb-vol-r" viewBox="0 0 17 32"><path fill="#fff" style="fill:var(--color1,#fff)" stroke-width="1.454" stroke="#2C2C2C" d="M1.105 16.395a.548.548 0 0 1-.125-.61.55.55 0 0 1 .125-.18L15.291 2.089a.545.545 0 0 1 .747-.005l.008.008.014.013a.442.442 0 0 1 0 .644l-.001.001L2.148 15.999 16.06 29.254a.442.442 0 0 1 0 .644l-.013.013-.008.008a.543.543 0 0 1-.747-.005L1.106 16.398z"/></symbol></defs></svg>