<!-- Generated by IcoMoon.io -->
<svg version="1.1" xmlns="http://www.w3.org/2000/svg" width="32" height="32" viewBox="0 0 32 32">
<title>Icon-Order</title>
<path fill="#fff" d="M32 16c0 8.837-7.163 16-16 16s-16-7.163-16-16c0-8.837 7.163-16 16-16s16 7.163 16 16z"></path>
<path fill="#7eb101" d="M15.667 6.222c1.348 0 2.5 0.47 3.456 1.411s1.433 2.085 1.433 3.433c0 0.77-0.167 1.496-0.5 2.178s-0.804 1.259-1.411 1.733h-0.756v-1.111c0.43-0.341 0.759-0.756 0.989-1.244s0.344-1.007 0.344-1.556c0-0.978-0.348-1.807-1.044-2.489s-1.533-1.022-2.511-1.022c-0.978 0-1.815 0.341-2.511 1.022s-1.044 1.511-1.044 2.489c0 0.548 0.115 1.067 0.344 1.556s0.559 0.904 0.989 1.244v1.6c-0.83-0.43-1.481-1.037-1.956-1.822s-0.711-1.644-0.711-2.578c0-1.348 0.478-2.493 1.433-3.433s2.107-1.411 3.456-1.411zM14.822 24.889c-0.252 0-0.489-0.048-0.711-0.144s-0.415-0.226-0.578-0.389l-4.578-4.578 1.244-1.289c0.207-0.207 0.441-0.367 0.7-0.478s0.53-0.13 0.811-0.056l1.733 0.4v-7.244c0-0.622 0.215-1.148 0.644-1.578s0.956-0.644 1.578-0.644c0.622 0 1.148 0.215 1.578 0.644s0.644 0.956 0.644 1.578v3.822h0.578c0.074 0 0.141 0.015 0.2 0.044s0.126 0.059 0.2 0.089l3.289 1.6c0.356 0.163 0.619 0.426 0.789 0.789s0.219 0.737 0.144 1.122l-0.8 4.844c-0.074 0.43-0.281 0.781-0.622 1.056s-0.726 0.411-1.156 0.411h-5.689zM14.645 23.556h6.244l0.956-5.533-4.067-2.022h-1.222v-4.889c0-0.267-0.081-0.481-0.244-0.644s-0.378-0.244-0.644-0.244-0.482 0.081-0.644 0.244c-0.163 0.163-0.244 0.378-0.244 0.644v8.867l-3.422-0.733-0.511 0.511 3.8 3.8zM20.889 23.556v0z"></path>
</svg>
