<!-- Generated by IcoMoon.io -->
<svg version="1.1" xmlns="http://www.w3.org/2000/svg" width="32" height="32" viewBox="0 0 32 32">
<title>Icon-Deliv</title>
<path fill="#fff" d="M32 16c0 8.837-7.163 16-16 16s-16-7.163-16-16c0-8.837 7.163-16 16-16s16 7.163 16 16z"></path>
<path fill="#7eb101" d="M9.489 14.422l2.356 1c0.267-0.533 0.552-1.059 0.856-1.578s0.626-1.015 0.967-1.489l-1.756-0.356-2.422 2.422zM12.911 16.222l2.956 2.956c0.844-0.385 1.637-0.822 2.378-1.311s1.341-0.963 1.8-1.422c1.2-1.2 2.081-2.43 2.644-3.689s0.867-2.682 0.911-4.267c-1.585 0.044-3.007 0.348-4.267 0.911s-2.489 1.444-3.689 2.644c-0.459 0.459-0.933 1.059-1.422 1.8s-0.926 1.533-1.311 2.378zM18 14.089c-0.296-0.296-0.444-0.663-0.444-1.1s0.148-0.804 0.444-1.1c0.296-0.296 0.663-0.444 1.1-0.444s0.804 0.148 1.1 0.444c0.296 0.296 0.444 0.663 0.444 1.1s-0.148 0.804-0.444 1.1c-0.296 0.296-0.663 0.444-1.1 0.444s-0.804-0.148-1.1-0.444zM17.667 22.6l2.422-2.422-0.356-1.756c-0.474 0.341-0.97 0.663-1.489 0.967s-1.044 0.589-1.578 0.856l1 2.356zM24.911 7.178c0.133 2.015-0.119 3.852-0.756 5.511s-1.689 3.222-3.156 4.689l-0.089 0.089 0.489 2.444c0.044 0.222 0.033 0.437-0.033 0.644s-0.181 0.393-0.344 0.556l-3.8 3.822-1.889-4.4-3.778-3.778-4.4-1.889 3.822-3.8c0.163-0.163 0.348-0.278 0.556-0.344s0.422-0.078 0.644-0.033l2.444 0.489c0.015-0.015 0.030-0.026 0.044-0.033s0.030-0.019 0.044-0.033c1.467-1.467 3.030-2.522 4.689-3.167s3.496-0.9 5.511-0.767zM8.644 19.444c0.518-0.519 1.152-0.781 1.9-0.789s1.381 0.248 1.9 0.767c0.518 0.518 0.774 1.152 0.767 1.9s-0.27 1.381-0.789 1.9c-0.385 0.385-0.981 0.704-1.789 0.956s-2.019 0.489-3.633 0.711c0.222-1.615 0.456-2.83 0.7-3.644s0.559-1.415 0.944-1.8zM9.578 20.4c-0.207 0.222-0.393 0.57-0.556 1.044s-0.304 1.081-0.422 1.822c0.741-0.118 1.348-0.259 1.822-0.422s0.822-0.348 1.044-0.556c0.281-0.252 0.426-0.567 0.433-0.944s-0.122-0.707-0.389-0.989c-0.282-0.267-0.611-0.396-0.989-0.389s-0.693 0.152-0.944 0.433z"></path>
</svg>
